<svg width="32" height="32" viewBox="0 0 32 32" fill="none" xmlns="http://www.w3.org/2000/svg">
<g clip-path="url(#clip0_231_52338)">
<path d="M16 32C24.8366 32 32 24.8366 32 16C32 7.16344 24.8366 0 16 0C7.16344 0 0 7.16344 0 16C0 24.8366 7.16344 32 16 32Z" fill="#26A17B"/>
<path fill-rule="evenodd" clip-rule="evenodd" d="M17.9214 17.3831V17.3811C17.8114 17.3891 17.2444 17.4231 15.9794 17.4231C14.9694 17.4231 14.2584 17.3931 14.0084 17.3811V17.3841C10.1204 17.2131 7.21844 16.5361 7.21844 15.7261C7.21844 14.9171 10.1204 14.2401 14.0084 14.0661V16.7101C14.2624 16.7281 14.9904 16.7711 15.9964 16.7711C17.2034 16.7711 17.8084 16.7211 17.9214 16.7111V14.0681C21.8014 14.2411 24.6964 14.9181 24.6964 15.7261C24.6964 16.5361 21.8014 17.2111 17.9214 17.3831ZM17.9214 13.7931V11.4271H23.3354V7.81909H8.59444V11.4271H14.0084V13.7921C9.60844 13.9941 6.29944 14.8661 6.29944 15.9101C6.29944 16.9541 9.60844 17.8251 14.0084 18.0281V25.6101H17.9214V18.0261C22.3144 17.8241 25.6154 16.9531 25.6154 15.9101C25.6154 14.8671 22.3144 13.9961 17.9214 13.7931Z" fill="white"/>
</g>
<defs>
<clipPath id="clip0_231_52338">
<rect width="32" height="32" fill="white"/>
</clipPath>
</defs>
</svg>
