<svg xmlns="http://www.w3.org/2000/svg" xmlns:xlink="http://www.w3.org/1999/xlink"><symbol fill="none" viewBox="0 0 38 66" id="arrow" xmlns="http://www.w3.org/2000/svg"><path d="M17.232 64.768a2.5 2.5 0 0 0 3.536 0l15.91-15.91a2.5 2.5 0 0 0-3.536-3.536L19 59.464 4.858 45.323a2.5 2.5 0 0 0-3.536 3.536l15.91 15.91ZM16.5 0v63h5V0h-5Z" fill="#fff" fill-opacity=".1"/></symbol><symbol fill="none" viewBox="0 0 32 32" id="icon" xmlns="http://www.w3.org/2000/svg"><g clip-path="url(#ba)"><path d="M16 32c8.837 0 16-7.163 16-16S24.837 0 16 0 0 7.163 0 16s7.163 16 16 16Z" fill="#26A17B"/><path fill-rule="evenodd" clip-rule="evenodd" d="M17.921 17.383v-.002c-.11.008-.677.042-1.942.042-1.01 0-1.72-.03-1.97-.042v.003c-3.889-.17-6.79-.848-6.79-1.658 0-.809 2.901-1.486 6.79-1.66v2.644c.253.018.981.061 1.987.061 1.207 0 1.812-.05 1.925-.06v-2.643c3.88.173 6.775.85 6.775 1.658 0 .81-2.895 1.485-6.775 1.657Zm0-3.59v-2.366h5.414V7.82H8.595v3.608h5.413v2.365c-4.4.202-7.709 1.074-7.709 2.118 0 1.044 3.31 1.915 7.71 2.118v7.582h3.912v-7.584c4.393-.202 7.694-1.073 7.694-2.116 0-1.043-3.3-1.914-7.694-2.117Z" fill="#fff"/></g><defs><clipPath id="ba"><path fill="#fff" d="M0 0h32v32H0z"/></clipPath></defs></symbol><symbol fill="none" viewBox="0 0 907 1" id="line-block" xmlns="http://www.w3.org/2000/svg"><path stroke="url(#ca)" d="M0 .5h907"/><defs><linearGradient id="ca" x1="0" y1="1.5" x2="907" y2="1.5" gradientUnits="userSpaceOnUse"><stop stop-color="#CCC" stop-opacity="0"/><stop offset=".5" stop-color="#fff"/><stop offset="1" stop-color="#999" stop-opacity="0"/></linearGradient></defs></symbol></svg>